# xmcd
#
# Track frame offsets:
#	150
#	68602
#	102617
#	138887
#	177067
#	206752
#
# Disc length: 3236 seconds
#
# Revision: 1
# Processed by: cddbd v1.5.1PL0 Copyright (c) Steve Scherf et al.
# Submitted via: CDex 1.50Beta5
#
DISCID=500ca206
DTITLE=Toshi - Toward The Way
DYEAR=1900
DGENRE=Listening
TTITLE0=すべての中に君を見ている
TTITLE1=虹はけせない
TTITLE2=大空を飛ぶ鳥のように
TTITLE3=愛の詩をうたいたい
TTITLE4=君はいないか（シングルVer）
TTITLE5=森と風の旅人（シングルVer）
EXTD=
EXTT0=
EXTT1=
EXTT2=
EXTT3=
EXTT4=
EXTT5=
PLAYORDER=
